<?xml version="1.0" encoding="iso-8859-1"?>
<!-- Generator: Adobe Illustrator 19.0.0, SVG Export Plug-In . SVG Version: 6.00 Build 0)  -->
<svg version="1.1" id="Layer_1" xmlns="http://www.w3.org/2000/svg" xmlns:xlink="http://www.w3.org/1999/xlink" x="0px" y="0px"
	 viewBox="0 0 512.003 512.003" style="enable-background:new 0 0 512.003 512.003;" xml:space="preserve">
<polygon style="fill:#FEE187;" points="256.001,158.605 114.833,17.437 17.437,114.83 158.605,256 17.437,397.17 114.833,494.563 
	255.603,353.793 256.001,353.395 "/>
<path style="fill:#FFC61B;" d="M378.055,256l128.84-128.839c6.809-6.809,6.809-17.85,0-24.659L409.498,5.105
	c-6.807-6.807-17.85-6.807-24.659,0L256.001,133.944L127.162,5.105c-0.425-0.425-0.868-0.825-1.325-1.196
	C122.643,1.303,118.737,0,114.833,0c-2.232,0-4.462,0.425-6.561,1.276c-2.099,0.851-4.066,2.127-5.768,3.829L5.108,102.503
	c-6.809,6.809-6.809,17.85,0,24.659L133.948,256L5.108,384.839c-6.809,6.809-6.809,17.85,0,24.659l97.395,97.395
	c3.405,3.404,7.867,5.107,12.329,5.107c4.462,0,8.926-1.704,12.329-5.107l140.771-140.772l0.398-0.398
	c0.413-0.413,0.802-0.844,1.168-1.292c0.277-0.34,0.527-0.694,0.776-1.048c0.077-0.112,0.166-0.214,0.241-0.328
	c0.289-0.432,0.549-0.877,0.795-1.329c0.024-0.044,0.052-0.085,0.077-0.129c0.244-0.459,0.462-0.926,0.663-1.4
	c0.021-0.047,0.045-0.092,0.065-0.141c0.185-0.45,0.344-0.907,0.49-1.367c0.026-0.082,0.059-0.16,0.085-0.244
	c0.127-0.422,0.227-0.849,0.321-1.278c0.028-0.129,0.068-0.253,0.094-0.382c0.08-0.405,0.131-0.814,0.183-1.222
	c0.019-0.157,0.052-0.31,0.068-0.467c0.051-0.525,0.075-1.053,0.078-1.58c0-0.04,0.005-0.08,0.005-0.12V165.829L397.171,42.095
	l72.737,72.737l-128.84,128.839c-6.809,6.809-6.809,17.85,0,24.661l128.84,128.839l-72.737,72.737l-60.407-60.407
	c-6.809-6.809-17.85-6.809-24.661,0c-6.809,6.809-6.809,17.85,0,24.661l72.737,72.737c3.405,3.404,7.867,5.107,12.329,5.107
	c4.462,0,8.926-1.704,12.329-5.107l97.395-97.395c6.809-6.809,6.809-17.85,0-24.659L378.055,256z M170.937,268.329
	c6.809-6.809,6.809-17.85,0-24.661L42.096,114.83l72.737-72.737l123.732,123.733v180.345L114.833,469.905l-72.737-72.737
	L170.937,268.329z"/>
<g>
</g>
<g>
</g>
<g>
</g>
<g>
</g>
<g>
</g>
<g>
</g>
<g>
</g>
<g>
</g>
<g>
</g>
<g>
</g>
<g>
</g>
<g>
</g>
<g>
</g>
<g>
</g>
<g>
</g>
</svg>
