<?xml version="1.0" encoding="iso-8859-1"?>
<!-- Generator: Adobe Illustrator 19.0.0, SVG Export Plug-In . SVG Version: 6.00 Build 0)  -->
<svg version="1.1" id="Capa_1" xmlns="http://www.w3.org/2000/svg" xmlns:xlink="http://www.w3.org/1999/xlink" x="0px" y="0px"
	 viewBox="0 0 426.677 426.677" style="enable-background:new 0 0 426.677 426.677;" xml:space="preserve">
<path style="fill:#FFDC83;" d="M8,263.559V98.279c0-4.904,3.976-8.88,8.88-8.88c0,0,0,0,0,0H33.6v-36.48
	c0-4.904,3.976-8.88,8.88-8.88h108.8c4.904,0,8.88,3.976,8.88,8.88l0,0v36.8h198.72c4.904,0,8.88,3.976,8.88,8.88c0,0,0,0,0,0v53.84
	h-312c-4.209-0.01-7.705,3.242-8,7.44v0.64l-24,105.2L8,263.559z"/>
<path style="fill:#F1BC5E;" d="M13.68,342.119l-2.96-2.48l-3.28-3.12l40.48-176l0.96-8.4H409.6l-19.28,83.68l-9.6-6.4
	c-38.352-25.309-89.959-14.736-115.268,23.616c-15.279,23.153-18.014,52.399-7.292,77.984l4.64,11.12H13.68z"/>
<path style="fill:#FFB012;" d="M334.96,382.119c-45.994,0-83.28-37.286-83.28-83.28c0-45.994,37.286-83.28,83.28-83.28
	s83.28,37.286,83.28,83.28c0,0.027,0,0.053,0,0.08C418.152,344.864,380.905,382.075,334.96,382.119z"/>
<g>
	<path style="fill:#6D4A20;" d="M415.52,161.879v-1.76c0-8.837-7.163-16-16-16h-24v-45.84c0-9.323-7.557-16.88-16.88-16.88l0,0
		H168.16v-28.48c0-9.323-7.557-16.88-16.88-16.88l0,0H42.48c-9.323,0-16.88,7.557-16.88,16.88v28.8h-8.72
		C7.557,81.719,0,89.277,0,98.599l0,0v234.32c0,0,0,0,0,0.48v0.4c0,8.837,7.163,16,16,16h243.44
		c27.82,41.989,84.41,53.475,126.399,25.655s53.475-84.41,25.656-126.399c-3.623-5.468-7.826-10.53-12.534-15.097L415.52,161.879z
		 M16,97.879c0-0.486,0.394-0.88,0.88-0.88c0,0,0,0,0,0H33.6c4.418,0,8-3.582,8-8v-36.08c0-0.486,0.394-0.88,0.88-0.88h108.8
		c0.486,0,0.88,0.394,0.88,0.88l0,0v36.8c0,4.418,3.582,8,8,8h198.72c0.486,0,0.88,0.394,0.88,0.88c0,0,0,0,0,0v45.84h-304
		c-8.446-0.018-15.451,6.532-16,14.96l-24,104.56L16,97.879z M250.8,334.119H16.88c-0.206,0.08-0.434,0.08-0.64,0l39.52-172v-1.76
		h343.76l-14.4,62.72c-42.12-27.62-98.656-15.865-126.276,26.256C242.322,274.532,239.311,306.264,250.8,334.119L250.8,334.119z
		 M410.24,298.919c0,41.576-33.704,75.28-75.28,75.28s-75.28-33.704-75.28-75.28s33.704-75.28,75.28-75.28
		C376.518,223.684,410.196,257.362,410.24,298.919z"/>
	<path style="fill:#6D4A20;" d="M369.84,264.039c-3.12-3.102-8.16-3.102-11.28,0l-23.6,23.6l-23.6-23.6
		c-2.874-3.356-7.924-3.747-11.28-0.873c-3.356,2.874-3.747,7.924-0.873,11.28c0.268,0.313,0.56,0.605,0.873,0.873l23.6,23.6
		l-23.6,23.6c-3.356,2.874-3.747,7.924-0.873,11.28s7.924,3.747,11.28,0.873c0.313-0.268,0.605-0.56,0.873-0.873l23.6-23.6
		l23.6,23.6c3.356,2.874,8.406,2.483,11.28-0.873c2.565-2.995,2.565-7.412,0-10.407l-23.6-23.6l23.6-23.6
		C372.942,272.199,372.942,267.16,369.84,264.039z"/>
</g>
<g>
</g>
<g>
</g>
<g>
</g>
<g>
</g>
<g>
</g>
<g>
</g>
<g>
</g>
<g>
</g>
<g>
</g>
<g>
</g>
<g>
</g>
<g>
</g>
<g>
</g>
<g>
</g>
<g>
</g>
</svg>
