<?xml version="1.0" encoding="iso-8859-1"?>
<!-- Generator: Adobe Illustrator 19.0.0, SVG Export Plug-In . SVG Version: 6.00 Build 0)  -->
<svg version="1.1" id="Capa_1" xmlns="http://www.w3.org/2000/svg" xmlns:xlink="http://www.w3.org/1999/xlink" x="0px" y="0px"
	 viewBox="0 0 430.72 430.72" style="enable-background:new 0 0 430.72 430.72;" xml:space="preserve">
<path style="fill:#FFDC83;" d="M89.92,361.48c-5.037,0-9.12-4.083-9.12-9.12L7.36,167.16l3.52-3.68
	c1.721-1.835,4.124-2.877,6.64-2.88H340.8c5.037,0,9.12,4.083,9.12,9.12l73.44,185.2l-3.52,3.68c-1.721,1.835-4.124,2.877-6.64,2.88
	H89.92z"/>
<path style="fill:#F1BC5E;" d="M350,169.8v-1.04c-0.531-4.583-4.427-8.031-9.04-8H83.04v-25.6c0-5.037,4.083-9.12,9.12-9.12h81.76
	l28-48c1.725-5.005,6.244-8.52,11.52-8.96h200c5.037,0,9.12,4.083,9.12,9.12v232.48l-15.2,2.96L350,169.8z"/>
<path style="fill:#6D4A20;" d="M413.6,60.84h-200c-8.234,0.328-15.504,5.468-18.56,13.12l-25.52,43.68H92.16
	c-9.455-0.003-17.122,7.66-17.125,17.115c0,0.135,0.002,0.27,0.005,0.405v17.76H17.12C7.665,152.92,0,160.585,0,170.04
	c-0.002,1.013,0.188,2.018,0.56,2.96l72,181.52c0.902,8.731,8.262,15.365,17.04,15.36h324c9.455,0,17.12-7.665,17.12-17.12V77.96
	C430.72,68.505,423.055,60.84,413.6,60.84L413.6,60.84z M413.6,353.48H89.92c-0.619,0-1.12-0.501-1.12-1.12
	c0.002-1.013-0.188-2.018-0.56-2.96l-72-180.48c0.258-0.098,0.542-0.098,0.8,0H340.8c0.619,0,1.12,0.501,1.12,1.12
	c-0.002,1.013,0.188,2.018,0.56,2.96l72,180.48C414.201,353.61,413.879,353.61,413.6,353.48z M414.72,310.68l-56.88-142.8
	c-0.902-8.731-8.262-15.365-17.04-15.36H91.04v-17.36c0-0.619,0.501-1.12,1.12-1.12h81.76c2.841-0.017,5.46-1.54,6.88-4l28-48
	c2.64-4.96,3.68-4.96,4.64-4.96h200c0.619,0,1.12,0.501,1.12,1.12L414.72,310.68z"/>
<g>
</g>
<g>
</g>
<g>
</g>
<g>
</g>
<g>
</g>
<g>
</g>
<g>
</g>
<g>
</g>
<g>
</g>
<g>
</g>
<g>
</g>
<g>
</g>
<g>
</g>
<g>
</g>
<g>
</g>
</svg>
