<?xml version="1.0" encoding="iso-8859-1"?>
<!-- Generator: Adobe Illustrator 19.0.0, SVG Export Plug-In . SVG Version: 6.00 Build 0)  -->
<svg version="1.1" id="Capa_1" xmlns="http://www.w3.org/2000/svg" xmlns:xlink="http://www.w3.org/1999/xlink" x="0px" y="0px"
	 viewBox="0 0 403.36 403.36" style="enable-background:new 0 0 403.36 403.36;" xml:space="preserve">
<path style="fill:#F1BC5E;" d="M16.96,350.8c-4.948,0-8.96-4.012-8.96-8.96V177.76c0-22.88,12.88-35.52,36.24-35.52h140l70.64-44.64
	h104c23.04,0,36.24,13.2,36.24,36.24v208c0,4.948-4.012,8.96-8.96,8.96H16.96z"/>
<path style="fill:#FFDC83;" d="M8,61.6c0-4.948,4.012-8.96,8.96-8.96H386.4c4.948,0,8.96,4.012,8.96,8.96v52.16l-12.72-9.28
	c-6.918-4.726-15.145-7.16-23.52-6.96h-104l-14.08,8.24h-192v36h-8c-7.325,0.046-14.474,2.243-20.56,6.32L8,157.52L8,61.6z"/>
<path style="fill:#FFFFFF;" d="M48.88,141.92V106h192.16l-56.8,35.92H48.88z"/>
<path style="fill:#6D4A20;" d="M386.4,44.72H16.96C7.593,44.72,0,52.313,0,61.68v280c0,9.367,7.593,16.96,16.96,16.96H386.4
	c9.367,0,16.96-7.593,16.96-16.96v-280C403.36,52.313,395.767,44.72,386.4,44.72L386.4,44.72z M387.36,341.92
	c0.046,0.484-0.308,0.914-0.792,0.96c-0.056,0.005-0.112,0.005-0.168,0H16.96c-0.484,0.046-0.914-0.308-0.96-0.792
	c-0.005-0.056-0.005-0.112,0-0.168V177.76c0-18.24,9.28-27.52,28.24-27.52h140c1.498,0.005,2.967-0.411,4.24-1.2l68.64-43.36h102
	c12.88,0,28.24,4.88,28.24,28.24V341.92z M56.88,133.92v-20.16h156.48l-31.52,19.92L56.88,133.92z M387.36,97.76
	c-8.29-5.719-18.17-8.686-28.24-8.48h-104c-1.498-0.005-2.967,0.411-4.24,1.2l-12.16,7.28H48.88c-4.418,0-8,3.582-8,8v28.08
	c-8.899,0.163-17.553,2.946-24.88,8v-80c-0.046-0.484,0.308-0.914,0.792-0.96c0.056-0.005,0.112-0.005,0.168,0H386.4
	c0.484-0.046,0.914,0.308,0.96,0.792c0.005,0.056,0.005,0.112,0,0.168L387.36,97.76z"/>
<g>
</g>
<g>
</g>
<g>
</g>
<g>
</g>
<g>
</g>
<g>
</g>
<g>
</g>
<g>
</g>
<g>
</g>
<g>
</g>
<g>
</g>
<g>
</g>
<g>
</g>
<g>
</g>
<g>
</g>
</svg>
