<?xml version="1.0" encoding="iso-8859-1"?>
<!-- Generator: Adobe Illustrator 19.0.0, SVG Export Plug-In . SVG Version: 6.00 Build 0)  -->
<svg version="1.1" id="Capa_1" xmlns="http://www.w3.org/2000/svg" xmlns:xlink="http://www.w3.org/1999/xlink" x="0px" y="0px"
	 viewBox="0 0 408.039 408.039" style="enable-background:new 0 0 408.039 408.039;" xml:space="preserve">
<g>
	<g>
		<path d="M336.296,158.561c-0.154-16.841-13.838-30.419-30.68-30.44h-137.6l-137.56,0.4c-16.904,0.154-30.507,13.936-30.44,30.84
			c-0.021,0.266-0.021,0.534,0,0.8l26.72,162.36c0.262,16.763,13.915,30.22,30.68,30.24h275.12
			c16.935-0.022,30.658-13.745,30.68-30.68c0.021-0.266,0.021-0.534,0-0.8L336.296,158.561z"/>
	</g>
</g>
<g>
	<g>
		<path d="M377.536,89.081L377.536,89.081l-135.24,0l-26.76-32c-0.985-1.184-2.461-1.848-4-1.8h-109.12
			c-16.765,0.02-30.418,13.477-30.68,30.24l-4.72,28.64h10.16l228.44-0.04c24.044,0.104,43.773,19.06,44.84,43.08l18.28,110.92
			l4.52,27.36c1.685-3.779,2.584-7.862,2.64-12l32.12-162.72c0.031-0.319,0.031-0.641,0-0.96
			C408.016,102.928,394.408,89.213,377.536,89.081z"/>
	</g>
</g>
<g>
</g>
<g>
</g>
<g>
</g>
<g>
</g>
<g>
</g>
<g>
</g>
<g>
</g>
<g>
</g>
<g>
</g>
<g>
</g>
<g>
</g>
<g>
</g>
<g>
</g>
<g>
</g>
<g>
</g>
</svg>
